<?xml version="1.0" encoding="UTF-8"?>
<svg width="648" height="429" viewBox="0 0 648 429" fill="none" xmlns="http://www.w3.org/2000/svg">
  <path opacity=".15" d="M588.64 429s67.144-77.836 58.61-144.352c-8.533-66.517-20.904-82.797-89.635-99.298-21.136-5.071-42.635-16.133-54.013-37.705-14.553-27.525 6.747-67.8027-6.317-97.7169-12.702-28.9954-44.653-40.498-71.411-43.732-26.527-3.1972-53.186.441-79.316 5.88C293.67 23.1009 244.85 47.7232 220.605 103.693c-10.981 25.357-12.734 74.271-38.236 88.199-16.207 8.856-37.21 10.143-54.608 14.736C73.649 220.887 4.0266 264.536.4468 327.371c-2.1168 37.155 3.2898 77.041 16.1794 99.571L588.64 429z" fill="url(#paint0_linear)"/>
  <path opacity=".15" d="M72.9092 429S9.8378 375.358 15 325c5.1623-50.358 35.0991-67.969 76.6775-80.461 12.7855-3.84 25.7915-12.214 32.6745-28.546 8.804-20.839-4.082-51.332 3.822-73.979 7.683-21.952 27.012-30.66 43.199-33.108 16.047-2.421 32.174.333 47.981 4.451 31.994 8.347 61.527 26.988 76.194 69.361 6.643 19.197 88.525 102.237 103.952 112.782 9.804 6.705-9.782-23.799 60.5-46.009C537.5 225 578.834 291.929 581 339.5c1.28 28.129-12.203 70.885-20 87.942L72.9092 429z" fill="url(#paint1_linear)"/>
  <g opacity=".7">
    <path opacity=".6" d="M567.417 256.22c1.573.713 2.819-1.763 1.762-3.596-5.991-10.709-19.286-30.289-35.954-28.104-22.9 2.977-38.34 18.672-55.114 71.391-16.3 51.174-63.493 72.81-76.663 74.457-.626.058-1.03.739-1.099 1.604-.047 1.077.765 2.074 1.536 1.896 9.24-1.499 57.616-10.05 80.426-30.074 23.885-21.089 54.04-101.112 85.106-87.574z" fill="url(#paint2_linear)"/>
    <path opacity=".71" d="M552.163 242.935c-1.907-.896-3.849-1.36-5.869-1.817-2.01-.35-3.93-.602-5.895-.527-.95-.02-1.966.074-2.982.168-1.017.094-1.955.181-2.883.374-1.943.287-3.855.893-5.677 1.598-3.722 1.417-7.301 3.465-10.58 6.128-3.289 2.557-6.279 5.73-9.069 9.313-5.59 7.061-10.012 15.515-13.732 24.655-.865 2.333-1.742 4.559-2.686 6.899-.866 2.333-1.732 4.666-2.676 7.006l-1.382 3.453-1.461 3.46c-.944 2.34-1.988 4.475-3.01 6.822-2.066 4.482-4.222 8.865-6.644 12.951-2.412 4.192-4.923 8.179-7.613 11.967-5.458 7.585-11.839 13.861-18.753 18.791-6.993 4.938-14.45 8.417-22.062 11.159-7.612 2.742-15.357 4.96-23.023 7.171-.156.015-.245-.084-.267-.297-.022-.212.045-.326.124-.333 7.633-2.53 15.356-4.961 22.868-7.908 7.501-3.054 14.88-6.526 21.627-11.548 6.758-4.916 12.893-11.276 18.206-18.74 2.701-3.682 5.134-7.662 7.467-11.847 2.345-4.078 4.422-8.454 6.499-12.829.955-2.234 1.988-4.475 2.943-6.709l1.382-3.453 1.383-3.453c.944-2.34 1.732-4.666 2.597-6.998.866-2.333 1.81-4.673 2.754-7.013 3.876-9.155 8.421-17.942 14.236-25.131 5.736-7.181 12.752-12.657 20.52-15.414 1.911-.606 3.9-1.219 5.933-1.407 1.006-.2 2.033-.188 3.05-.282 1.027.012 2.043-.082 3.082.037 4.042.162 8.16 1.068 12.064 2.96.167.092.356.396.222.623-.224.128-.448.256-.693.171z" fill="#fff"/>
  </g>
  <g opacity=".9">
    <path opacity=".4" d="M557.695 114.939c-7.606 13.576-19.523 22.831-31.334 30.038-15.446 9.474-32.161 17.349-43.55 34.064-11.87 17.403-16.434 42.175-17.803 66.545-1.368 24.369-.092 49.137-2.364 73.161-2.069 22.933-31.826 34.806-44.092 49.886 11.476-2.778 43.922-5.353 47.423-20.48 3.715-16.112 3.079-33.86 3.134-51.029.122-17.281 1.207-35.188 7.898-49.216 13.192-27.608 42.615-30.867 60.851-52.398 9.431-11.171 15.479-26.855 19.083-43.279 2.486-11.171 3.889-22.886 4.98-34.572.298-3.246-2.823-5.21-4.226-2.72z" fill="url(#paint3_linear)"/>
  </g>
  <path d="M519.513 51.064c-3.45-9.0133-7.851-17.2949-12.387-25.3496-1.434-2.4418-4.251-1.4303-4.337 1.5812-.289 12.5772-5.289 24.6248-11.432 33.9892-7.937 11.8902-17.888 21.0705-25.38 33.4559-15.375 25.5583-18.147 61.6423-16.392 95.6983 1.756 34.057 7.386 68.184 6.529 102.16-.398 16.128-2.35 32.506-8.136 46.128-5.651 13.395-15.528 24.07-27.124 25.679-.312.029-.582.483-.46.901.033.319.211.517.457.601 14.536 5.521 29.432-7.013 35.853-24.449 14.213-38.439 6.312-76.625 9.273-116.003 3.931-54.408 55.131-84.597 59.935-135.0798 1.251-13.2026-1.662-26.9854-6.399-39.3122z" fill="url(#paint4_linear)"/>
  <path opacity=".5" d="M506.335 47.843c-.069 2.5692-.217 5.1452-.457 7.5785-.24 2.4332-.558 4.8732-.877 7.3132-.729 4.7373-1.536 9.4813-2.607 13.9466-.489 2.304-1.071 4.4652-1.653 6.6265-.29 1.0806-.581 2.1613-.95 3.2487l-.951 3.2486c-.674 2.0185-1.427 4.0438-2.087 6.2118l-2.272 5.9261c-.766 1.876-1.612 3.758-2.457 5.641-.383.938-.859 1.733-1.321 2.678l-1.321 2.677c-.859 1.733-1.797 3.473-2.656 5.206-.86 1.733-1.812 3.323-2.671 5.056-3.53 6.789-7.046 13.728-10.113 21.231-3.068 7.503-5.672 15.72-7.75 24.494-1.085 4.316-1.907 8.91-2.729 13.505-.651 4.73-1.472 9.325-1.874 14.184-1.131 9.597-1.594 19.589-2.056 29.58-.153 4.989-.213 10.12-.366 15.109l-.039 15.232c.043.449-.177.619-.412.639-.235.02-.356-.421-.385-.721-.541-20.458-.378-40.978 1.671-60.757 1.814-19.758 6.118-38.224 12.366-53.692 3.131-7.659 6.633-14.748 10.163-21.537 1.719-3.466 3.608-6.796 5.327-10.262l1.336-2.528c.397-.788.859-1.733 1.242-2.67.767-1.876 1.627-3.609 2.393-5.4849l2.301-5.6272c.674-2.0185 1.441-3.8943 2.115-5.9128.675-2.0185 1.349-4.037 1.931-6.1982.581-2.1613 1.255-4.1798 1.759-6.3343 1.163-4.3225 2.078-8.7742 2.899-13.3687.411-2.2973.744-4.5877 1.062-7.0277.333-2.2905.573-4.7238.735-7.1502.035-.4554.256-.6253.426-.4893.128-.3126.313-.0271.278.4283z" fill="#fff"/>
  <path d="M500 356H54v73h446v-73z" fill="url(#paint5_linear)"/>
  <path d="M217.274 389.338l-7.597-13.105c-1.135-2.01-3.317-3.233-5.588-3.233h-15.192c-2.358 0-4.453 1.223-5.589 3.233l-7.596 13.192a6.565 6.565 0 000 6.466l7.596 13.193c1.136 2.009 3.318 3.32 5.589 3.32h15.192c2.358 0 4.453-1.311 5.588-3.32l7.597-13.193c1.135-2.097 1.135-4.543 0-6.553z" fill="url(#paint6_linear)"/>
  <path d="M214.742 389.163l-6.549-11.096c-.96-1.747-2.881-2.533-4.89-2.533h-13.097c-2.008 0-3.842.786-4.889 2.533l-6.549 11.184c-.961 1.747-.961 3.757 0 5.504l6.549 12.144c.96 1.748 2.881 3.582 4.889 3.582h13.097c2.009 0 3.842-1.834 4.89-3.582l6.549-11.795c.96-1.66.96-4.193 0-5.941z" fill="url(#paint7_linear)"/>
  <path d="M360 389.783c0 4.816-2.796 8.027-6.116 8.027h-120.31c-3.233 0-6.379-3.211-6.379-8.027v-.107c0-4.816 3.058-7.92 6.379-7.92h120.397c3.233 0 6.029 3.104 6.029 8.027z" fill="url(#paint8_linear)"/>
  <path d="M329.353 389.783c0 3.174-2.084 6.567-4.607 6.567h-91.484c-2.523 0-4.607-3.393-4.607-6.567 0-3.174 2.084-6.567 4.607-6.567h91.484c2.523 0 4.607 3.393 4.607 6.567z" fill="url(#paint9_linear)"/>
  <path d="M201.732 385.931c0 2.883-2.358 6.028-5.239 6.028s-5.239-3.145-5.239-6.028c0-2.883 2.358-4.893 5.239-4.893s5.239 2.01 5.239 4.893zM190.032 403.055h12.748c1.309 0 2.532-.873 2.968-2.184l.699-2.184c.524-1.573-.349-3.233-1.834-3.844-5.151-1.922-10.565-1.66-15.978.175-1.572.524-2.358 2.184-2.009 3.756l.524 1.923c.262 1.397 1.485 2.358 2.882 2.358z" fill="#fff"/>
  <path d="M518.675 340.378H34.3246v23.484H518.675v-23.484z" fill="url(#paint10_linear)"/>
  <path d="M275.286 353.085c-39.795.219-65.675-2.273-73.64-3.545v-8.183H354.29v6.273c-9.754 1.728-39.21 5.237-79.004 5.455z" fill="#160E43" fill-opacity=".5"/>
  <path d="M276.534 215.274v.06h-2.066v-.06c-5.497-.475-21.078-3.684-36.536-24.366-.041-.06-10.315-13.878-10.356-13.937 2.935 63.602 32.779 68.494 47.925 68.494 17.633 3.425 34.953-22.271 44.542-41.586-.042.06 6.36-27.397 4.403-26.908-20.548 13.937-42.415 37.828-47.912 38.303z" fill="url(#paint11_linear)"/>
  <path fill-rule="evenodd" clip-rule="evenodd" d="M273.354 340.962c-13.425.403-99.595-.094-99.595-.094s-4.893-9.296 4.403 12.72l-97.8486-15.656s-28.376-23.484-3.4246-68.983c12.6632-17.687 20.7034-33.405 27.7302-47.142 10.799-21.114 19.204-37.545 38.318-49.239 7.497-4.588 36.017-.994 50.012.77 2.413.304 4.394.554 5.761.698 4.246-3.303 20.059 32.29 20.059 32.29l57.567 60.398 57.567-60.398s15.813-35.593 20.059-32.29c1.367-.144 3.349-.394 5.762-.698 13.994-1.764 42.514-5.358 50.012-.77 19.114 11.694 27.518 28.125 38.318 49.239 7.026 13.737 15.066 29.455 27.73 47.142 24.951 45.499 4.892 69.962 4.892 69.962l-97.032 11.252c9.296-22.016-4.731-9.295-4.731-9.295s-91.469.497-105.559.094z" fill="url(#paint12_linear)"/>
  <path d="M334.06 155.385c.358-6.933 1.742-42.218-1.045-63.1565-23.252-44.1579-52.194-2.6382-73.701-15.7402-2.001-1.2255-3.859-2.626-5.646-4.2016.072.14.179.2451.251.3851.214.3502.464.6653.714.9804.25.3151.465.6653.715.9454.25.3151.5.6302.75.9103.143.1401.25.2801.393.4202l.322.3151-2.894 6.4776c-1.037-.0701-1.858-.1751-2.752-.2801-.893-.1051-1.75-.2451-2.643-.3852-1.751-.2801-3.466-.6302-5.217-.9804-2.715-.6302-5.395-1.3655-8.039-2.2409l-4.395 6.0224-2.072-.07c-.25 0-.643-.035-1.143-.07-4.18 3.1862-7.36 7.2828-8.468 8.8584-2.429 18.067-1.965 39.356-1.572 48.984h.072c1.929 30.357 15.863 46.919 29.226 59.069 15.531 14.111 30.476 20.507 51.067 7.157 9.35-6.062 23.564-18.576 29.28-31.321 4.577-7.738 5.633-12.034 6.797-22.079z" fill="url(#paint13_linear)"/>
  <path d="M197.732 302.706h7.828c1.467-6.36-2.446-24.462 4.403-24.462l-9.785-10.274c-1.906 4.971-6.982 12.049-6.982 12.049 2.207.768 4.28 1.635 5.918 2.77-28.885 14.178-22.399 15.413-22.399 15.413l12.7 4.504h8.317zM356.989 302.706h-7.828c-1.468-6.36 2.446-24.462-4.404-24.462l9.785-10.274c1.906 4.971 6.982 12.049 6.982 12.049-2.206.768-4.279 1.635-5.917 2.77 28.885 14.178 22.399 15.413 22.399 15.413l-12.7 4.504h-8.317z" fill="#DFA167"/>
  <path d="M215.834 278.244c-3.914.392-4.566 2.773-4.403 3.914l9.785-.978c-.164-1.142-1.468-3.327-5.382-2.936z" fill="url(#paint14_linear)"/>
  <path d="M230.81 278.127c-3.933.102-4.758 2.429-4.68 3.579l9.831-.256c-.079-1.15-1.219-3.425-5.151-3.323z" fill="url(#paint15_linear)"/>
  <path d="M222.982 278.127c-3.932.102-4.758 2.429-4.68 3.579l9.831-.256c-.079-1.15-1.219-3.425-5.151-3.323z" fill="url(#paint16_linear)"/>
  <path d="M321.247 278.244c-7.129-.133-4.574 2.303-4.362 3.464l17.824.333c-.212-1.16-6.332-3.663-13.462-3.797z" fill="url(#paint17_linear)"/>
  <path d="M347.809 281.466c7.016 1.274 4.03 3.159 3.594 4.255l-17.54-3.186c.437-1.095 6.93-2.344 13.946-1.069z" fill="url(#paint18_linear)"/>
  <path d="M208.757 353.368c11.181 1.315 16.956-19.245 21.704-24.993 6.248-7.564 88.791-6.578 92.08.986 3.288 7.564 13.812 25.651 21.704 25.651 7.893 0 16.443-9.208 18.416-26.637 1.973-17.43-2.96-37.49-10.852-42.423-6.314-3.946-25.212-4.933-33.872-4.933h-91.422c-2.631 0-16.443 0-22.362 2.631-5.92 2.631-9.537 9.537-11.839 18.087-2.302 8.551-2.631 14.799-2.302 27.624.329 12.826 7.564 22.691 18.745 24.007z" fill="url(#paint19_linear)"/>
  <path fill-rule="evenodd" clip-rule="evenodd" d="M237.6 281.24c.058-.05.278-.24.566-.24l.324 1.584c.147 0 .462.83.506.805.051-.029-.446.695-.436.686.006-.005.01-.009.01-.009s-.011.012-.037.041c-.081.092-.194.235-.371.458-.337.426-.822 1.037-1.433 1.685-1.223 1.298-2.972 2.77-5.198 3.361-1.745.463-4.046.454-6.162.276-2.132-.178-4.152-.535-5.369-.812l.286-3.188c1.163.264 3.122.611 5.189.784 2.085.175 4.204.166 5.723-.237 1.855-.492 3.336-1.725 4.409-2.863.536-.57.965-1.109 1.297-1.529l.03-.038c.148-.187.297-.374.419-.514.066-.075.151-.167.243-.247l.004-.003zM314.94 281.24c-.056-.05-.269-.24-.548-.24l.005 1.584c-.293.623-.252 1.582-.296 1.557a.577.577 0 01-.091-.066.0485.0485 0 01-.01-.009s.011.012.036.041c.078.092.188.235.359.458.327.426.797 1.037 1.389 1.685 1.185 1.298 2.881 2.77 5.039 3.361 1.692.463 3.922.454 5.973.276 2.067-.178 4.024-.535 5.204-.812l-.277-3.188c-1.128.264-3.027.611-5.03.784-2.021.175-4.075.166-5.548-.237-1.798-.492-3.233-1.725-4.273-2.863-.52-.57-.935-1.109-1.258-1.529l-.029-.038c-.143-.187-.287-.374-.406-.514-.063-.075-.146-.167-.235-.247l-.004-.003z" fill="#172A37"/>
  <path d="M238.025 280.691h77.61c0 5.448-4.417 9.865-9.866 9.865H247.89c-5.448 0-9.865-4.417-9.865-9.865z" fill="url(#paint20_linear)"/>
  <rect x="270.91" y="295.16" width="12.4965" height="3.9463" rx="1.9731" fill="#2B2B2B"/>
  <circle cx="295.903" cy="303.71" r="1.9731" fill="#C613B4"/>
  <circle cx="295.903" cy="308.972" r="1.9731" fill="#2A2A2A"/>
  <circle cx="301.165" cy="303.71" r="1.9731" fill="#2A2A2A"/>
  <circle cx="301.165" cy="308.972" r="1.9731" fill="#2A2A2A"/>
  <path d="M219.609 331.005c-11.05.527-14.47-15.127-14.799-23.02 4.473-3.157 18.526-2.192 24.993-1.315 1.206 7.893.855 23.809-10.194 24.335z" fill="url(#paint21_linear)"/>
  <path d="M334.051 331.005c11.049.527 14.469-15.127 14.798-23.02-4.472-3.157-18.525-2.192-24.993-1.315-1.206 7.893-.855 23.809 10.195 24.335z" fill="url(#paint22_linear)"/>
  <path d="M206.784 289.241c-3.42 3.683-2.96 12.277-2.302 16.114 1.534-.548 6.248-1.645 12.825-1.645 6.577 0 11.291.439 12.825.658.329-4.713.263-14.667-2.631-16.771-3.617-2.631-16.442-2.96-20.717 1.644z" fill="url(#paint23_linear)"/>
  <path d="M346.876 289.241c3.42 3.683 2.96 12.277 2.302 16.114-1.535-.548-6.248-1.645-12.825-1.645-6.578 0-11.291.439-12.826.658-.329-4.713-.263-14.667 2.631-16.771 3.617-2.631 16.443-2.96 20.718 1.644z" fill="url(#paint24_linear)"/>
  <path d="M189.934 349.42c3.543.801 16.983-.734 19.758-3.002 3.577-2.87 4.179-8.841 4.011-13.245-5.616 1.701-14.643 2.435-20.359 2.435-2.073 0-3.711-.1-4.614-.267-.535-.1-1.504-.267-2.708-.433-6.151-.901-16.916-2.503-24.271-6.673-.602 2.502-1.371 8.174 2.039 12.578 5.015 5.171 18.02 7.239 23.335 8.107 1.271.2 2.173.367 2.809.5z" fill="url(#paint25_linear)"/>
  <path d="M210.824 344.817c-3.217 2.727-12.868 4.237-18.771 4.237-1.531 0-2.812-.098-3.655-.295-.437-.099-1.312-.263-2.342-.427-4.779-.821-12.806-2.168-18.959-5.42.187 2.595.906 6.175 3.311 8.54 2.904 2.858 16.772 5.748 21.769 6.109 2.749.197 7.465-.657 11.463-1.872v-.033h.156c2.405-.722 4.529-1.609 5.779-2.463.343-.296.687-.624 1.03-1.018.032-.033.063-.066.094-.132 1.187-2.989 1.437-6.076 1.406-8.474-.375.46-.812.854-1.281 1.248z" fill="url(#paint26_linear)"/>
  <path d="M216.632 259.402c-1.571-2.836-4.848-4.471-6.887-5.238-4.012-1.435-9.294-1.134-12.336.734-3.578 2.202-8.225 12.177-12.805 20.751-.334.634-.702 1.301-1.036 1.935-6.82 4.27-12.653 7.551-17.685 11.376-2.407 1.835-6.787 5.505-8.659 10.943-.669 2.769-.97 6.072.2 8.875 2.976 7.306 18.99 9.441 25.843 10.375 1.605.2 2.741.367 3.51.534 4.112.901 23.403-.867 26.445-3.236 2.507-1.968 3.577-4.637 3.945-7.206.067-1.035.033-2.202-.134-3.503-.267-2.035-1.036-3.47-2.34-4.371-.903-.634-2.474-1.001-4.146-1.201v.067l-.401.033v-.133c-2.875-.267-5.984-.1-6.72.033l-.367.067c-.402.033-9.762.934-12.604 1.201-2.641.233-9.729-1.935-13.707-3.236 0 0 7.489-.534 14.61-1.935 4.137-1.033 0-13.13 8.959-12.641 3.109-.489-3.074-9.296 0-13.682 7.623 10.009 15.446 11.01 19.457 10.709 3.243-.233 5.182-2.101 5.817-2.735 1.237-1.468-1.939-5.071-3.443-7.774-2.173-3.936-2.674-5.538-5.516-10.742z" fill="url(#paint27_linear)"/>
  <path d="M192.01 318.586c-2.073 0-3.745-.1-4.681-.3-.602-.134-1.772-.301-3.142-.467-6.453-.868-18.288-2.469-25.208-7.774-.501 1.668-2.641 9.475-.267 14.846 3.042 7.04 20.66 9.642 27.28 10.609 1.304.201 2.307.334 2.975.468 4.279.867 21.931-.701 24.806-3.003 3.344-2.669 4.514-5.905 4.714-8.941v-.1-.367c.101-3.904-2.161-6.04-3.632-7.641-5.583 2.169-16.126 2.67-22.845 2.67z" fill="url(#paint28_linear)"/>
  <path d="M364.787 349.42c-3.544.801-16.983-.734-19.758-3.002-3.577-2.87-4.179-8.841-4.012-13.245 5.616 1.701 14.643 2.435 20.36 2.435 2.073 0 3.711-.1 4.613-.267.535-.1 1.505-.267 2.708-.433 6.152-.901 16.917-2.503 24.272-6.673.601 2.502 1.37 8.174-2.04 12.578-5.014 5.171-18.019 7.239-23.335 8.107-1.27.2-2.173.367-2.808.5z" fill="url(#paint29_linear)"/>
  <path d="M343.896 344.817c3.217 2.727 12.869 4.237 18.772 4.237 1.53 0 2.811-.098 3.654-.295.437-.099 1.312-.263 2.343-.427 4.778-.821 12.806-2.168 18.959-5.42-.188 2.595-.906 6.175-3.311 8.54-2.905 2.858-16.773 5.748-21.77 6.109-2.749.197-7.465-.657-11.463-1.872v-.033h-.156c-2.405-.722-4.529-1.609-5.778-2.463-.344-.296-.687-.624-1.031-1.018-.031-.033-.063-.066-.094-.132-1.187-2.989-1.436-6.076-1.405-8.474.375.46.812.854 1.28 1.248z" fill="url(#paint30_linear)"/>
  <path d="M338.089 259.402c1.571-2.836 4.847-4.471 6.886-5.238 4.012-1.435 9.294-1.134 12.337.734 3.577 2.202 8.224 12.177 12.804 20.751.334.634.702 1.301 1.036 1.935 6.82 4.27 12.654 7.551 17.686 11.376 2.407 1.835 6.786 5.505 8.658 10.943.669 2.769.97 6.072-.2 8.875-2.975 7.306-18.989 9.441-25.843 10.375-1.604.2-2.741.367-3.51.534-4.112.901-23.402-.867-26.444-3.236-2.508-1.968-3.578-4.637-3.945-7.206-.067-1.035-.034-2.202.133-3.503.268-2.035 1.037-3.47 2.341-4.371.902-.634 2.474-1.001 4.145-1.201v.067l.401.033v-.133c2.875-.267 5.985-.1 6.72.033l.368.067c.401.033 9.762.934 12.604 1.201 2.641.233 9.728-1.935 13.706-3.236 0 0-7.488-.534-14.609-1.935-4.138-1.033 0-13.13-8.96-12.641-3.109-.489 3.075-9.296 0-13.682-7.622 10.009-15.445 11.01-19.457 10.709-3.243-.233-5.182-2.101-5.817-2.735-1.237-1.468 1.939-5.071 3.443-7.774 2.173-3.936 2.675-5.538 5.517-10.742z" fill="url(#paint31_linear)"/>
  <path d="M362.711 318.586c2.073 0 3.744-.1 4.68-.3.602-.134 1.772-.301 3.143-.467 6.452-.868 18.287-2.469 25.207-7.774.502 1.668 2.641 9.475.268 14.846-3.043 7.04-20.661 9.642-27.28 10.609-1.304.201-2.307.334-2.976.468-4.279.867-21.931-.701-24.806-3.003-3.343-2.669-4.513-5.905-4.714-8.941v-.1-.367c-.1-3.904 2.161-6.04 3.632-7.641 5.583 2.169 16.126 2.67 22.846 2.67z" fill="url(#paint32_linear)"/>
  <path d="M345.109 82.2821c.636 2.2353.529 10.3048.864 14.9421l11.252.9785c.334-5.2712 2.427-35.3373-10.712-52.7857.134.5671.268 1.1009.368 1.7015.301 1.7348.401 3.5363.234 5.3713-.033.5004-.133.9675-.2 1.4679 2.875 2.9692-.134 5.1378 0 5.3379h1.993c2.775 6.2054 0 5.1493 0 11.0202-1.504 2.4688-1.392 10.2649-3.799 11.9663z" fill="url(#paint33_linear)"/>
  <path d="M205.56 98.2028c.334-4.5039 2.367-23.6279 2.935-25.9299-2.073-1.7015-3.778-3.7699-4.847-6.2721-3.11-7.1395-1.927-5.8042 6.732-15.9463v-.2002l-.033-2.5689.133-2.6022c.134-1.6681.402-3.3696.769-5.0377-18.521 17.3483-17.457 52.6855-17.056 58.5906h11.367v-.0333z" fill="url(#paint34_linear)"/>
  <path d="M192.004 100.649h-.2l-9.662 9.975c-.1 4.237-.301 18.149 1.304 34.363l10.899 7.974c-1.404-13.345-2.775-31.961-2.341-52.312z" fill="url(#paint35_linear)"/>
  <path d="M214.693 103.234l-6.82-3.7367h-14.108c-.569 26.2557 1.838 49.5427 3.543 62.2207l19.558 5.004c-2.207-22.653-2.374-44.605-2.173-63.488z" fill="url(#paint36_linear)"/>
  <path d="M344.641 99.4973l-6.82 3.7367c.167 14.012.101 29.692-.836 46.106 1.104-.8-4.313 2.502-3.243 1.701-.001 3.914-.49 14.188-.49 17.124 2.474 3.302 18.778-13.72 16.939-11.485-1.705 2.035-6.085 5.638-12.303 9.508l17.284-4.437c1.705-12.678 4.112-35.964 3.544-62.2203h-14.075v-.0334z" fill="url(#paint37_linear)"/>
  <path d="M370.406 110.624l-9.662-9.975h-.2c.434 20.384-.903 38.967-2.34 52.312l10.898-7.974c1.572-16.214 1.405-30.126 1.304-34.363z" fill="url(#paint38_linear)"/>
  <path d="M219.039 207.791c9.662 17.448 27.38 41.636 57.235 59.318 51.351-30.393 67.598-80.17 70.875-92.18l-15.412 2.168c-2.875 7.04-20.728 48.009-55.263 69.027l-.2.1-.201-.1c-34.535-21.018-52.387-61.987-55.262-69.027l-15.412-2.168c1.437 5.305 5.349 17.915 13.64 32.862z" fill="url(#paint39_linear)"/>
  <path d="M315.556 173.161c16.615-6.105 29.253-15.58 31.927-18.783.368-.434 2.14-2.769.568-4.871-1.671-2.202-4.279-.767-5.683.267-7.957 5.905-16.214 11.977-29.085 17.215 1.002.967 1.705 2.202 2.072 3.603.234.867.301 1.735.201 2.569z" fill="url(#paint40_linear)"/>
  <path d="M300.617 177.875c1.003.6 2.139.767 3.276.467l10.431-2.669c2.307-.601 3.677-2.936 3.109-5.238-.301-1.101-1.003-2.035-1.973-2.636-1.003-.6-2.139-.767-3.276-.467l-10.431 2.669c-2.306.601-3.677 2.936-3.109 5.238.268 1.101.97 2.035 1.973 2.636z" fill="url(#paint41_linear)"/>
  <path d="M350.328 98.1837c.235-14.646-2.373-21.0182-2.373-21.0182l-6.386 7.3063 1.171 11.3432 7.588 2.3687zM217.702 108.705l-3.21-9.2077-6.385-4.9709s-1.371 21.1516.301 52.3456l-14.51-2.036 1.404 8.875 13.641 2.202c.334 4.871.768 9.942 1.27 15.179l9.227-1.768-1.738-60.619z" fill="#0C082D"/>
  <path d="M212.213 95.825l1.175-13.7299-6.409-8.8436s-2.618 7.7129-2.383 25.4406l7.617-2.8671zM358.081 148.373l.612-4.181-14.188 1.467c1.705-31.193-.064-51.0992-.064-51.0992l-6.386 4.971-3.209 9.2082-1.105 44.748c2.04-1.568 3.732-2.968 5.871-4.403 2.173-1.434 5.12-3.376 7.828-2.642.636.167 5.382 5.088 1.957 9.492 0 0-11.319 9.993-16.356 10.763v2.627l9.227 1.769c.067-.835.167-1.669.234-2.503l14.676-4.237 1.772-16.314-.869.334z" fill="#0C082D"/>
  <path d="M365.053 172.079l-14.918 2.678s-11.373 36.701-36.928 61.49c-25.589 24.788-37.196 31.723-37.196 31.723s51.378-23.449 89.042-95.891z" fill="url(#paint42_linear)"/>
  <path d="M276.011 267.97s-11.607-6.935-37.196-31.723c-25.589-24.789-36.928-61.49-36.928-61.49l-14.918-2.678c37.664 72.442 89.042 95.891 89.042 95.891z" fill="url(#paint43_linear)"/>
  <path d="M485.288 277.518c-.334-.301-.635-.601-.936-.868 0 0 .334.4.869 1.101 0-.067.034-.167.067-.233zM68.2291 276.65c-.3009.267-.6352.567-.9361.868.0334.066.0668.166.1003.233.5014-.701.8358-1.101.8358-1.101z" fill="#231F20"/>
  <path d="M332.372 33.3401c-.033.1001-.1.1668-.134.2669.167-.2002.134-.2669.134-.2669z" fill="#3E2715"/>
  <path fill-rule="evenodd" clip-rule="evenodd" d="M227.576 178.928l1.957 16.634-9.123-15.696-10.398-.767c18.455 55.248 58.94 83.372 58.94 83.372-47.339-19.583-71.709-90.882-71.709-90.882s3.914-6.344 16.634-2.446 13.699 9.785 13.699 9.785zm95.891 6.36l-3.424 14.677 11.36-20.099 10.397-.767c-18.454 55.248-58.94 83.372-58.94 83.372 47.339-19.584 71.71-90.882 71.71-90.882s-6.569-5.531-16.634-2.446c-10.065 3.084-14.469 16.145-14.469 16.145z" fill="url(#paint44_linear)"/>
  <path fill-rule="evenodd" clip-rule="evenodd" d="M360.676 97.0469c.599-5.5779 3.837-44.658-21.064-59.9995l.724 6.1268c.034 0 17.36 14.9433 16.392 53.7046l-12.154-.5177.234 6.7729 11.367-.1s.301 4.937.268 13.645h-7.924v4.237h7.89c-.133 9.908-.702 23.487-2.373 39.5l-11.367 4.604 14.91-2.835s3.912-34.597 3.644-58.284l8.793 8.074s.067 5.771-.033 12.977h-9.194v3.537h9.16c-.1 4.871-.301 10.042-.635 14.412l-9.328 8.841 12.638-7.206 1.905-38.033-13.506-9.4413-.347-.0148z" fill="url(#paint45_linear)"/>
  <path fill-rule="evenodd" clip-rule="evenodd" d="M191.353 97.3152l-13.335 9.3218 1.906 38.032 12.637 7.14-9.294-8.841c-.334-4.37-.535-9.542-.635-14.412h9.16v-3.537h-9.227c-.1-7.239-.033-12.978-.033-12.978l8.792-8.073c-.267 23.687 3.644 58.283 3.644 58.283l14.911 2.836-11.367-4.604c-1.672-16.047-2.24-29.592-2.374-39.501h7.89v-4.237h-7.923c-.034-8.707.267-13.645.267-13.645l11.367.1.234-6.7722-12.843.5992c-.938-38.8714 15.61-53.8528 15.61-53.8528l.691-6.1268c-24.197 15.6176-20.558 55.8359-20.078 60.2678z" fill="url(#paint46_linear)"/>
  <path d="M299.867 176.971s-2.985-4.521 2.813-5.931c9.024-2.212 13.862-4.489 14.857.096 0 0 1.51-2.276-.48-4.04-1.99-1.795-2.23-2.468-7.205-1.25-4.976 1.218-13.691 2.02-13.279 5.418.48 3.366 3.294 5.707 3.294 5.707z" fill="url(#paint47_linear)"/>
  <path d="M308.982 172.967c.201.801-.869 1.769-2.407 2.136-1.538.4-2.942.066-3.142-.734-.201-.801.869-1.769 2.407-2.136 1.537-.367 2.908-.066 3.142.734z" fill="#fff"/>
  <path d="M242.742 89.3963c-19.569-7.3386-22.994 26.5827-24.951 33.2687-4.933-9.02-7.552-28.3987-8.172-43.9111-17.976-13.4016-21.182-39.4077-21.183-42.6851 0-2.4462 9.622.4893 14.678-.9785-1.468-1.957-8.318-9.7849-3.914-9.7849 12.322 0 20.829-4.2618 53.106-19.4583.398-.1924.798-.3806 1.2-.5646 17.696-8.1034 39.02-7.8965 60.666 7.7919 8.294 6.0115 9.948 14.025 10.274 16.6343 24.909-9.4483 31.082 34.8481 23.973 49.9029-6.654 14.0902-11.742 42.8904-14.188 54.7954-1.142-8.154-3.505-26.328-4.893-33.758-8.317-44.5213-63.272-2.5063-86.596-11.2527z" fill="url(#paint48_linear)"/>
  <path d="M530.049 117.857c.243 0 .487-.122.609-.244l11.329-11.939c.122-.243.244-.487.244-.73l-1.097-15.8373c0-.3654-.243-.7309-.731-.8527l-19.126-4.9947c-.365-.1218-.73 0-.974.3655l-9.746 13.2785c-.122.2436-.243.4873-.122.7309l3.046 15.3498c.122.365.365.609.609.731l15.593 4.142h.366zm10.354-13.157l-10.598 11.207-14.497-3.776-2.802-14.4968 9.137-12.4258 17.908 4.6293.852 14.8623z" fill="#fff" fill-opacity=".3"/>
  <path d="M541.378 105.918c.365 0 .731-.244.853-.609.121-.487-.122-.975-.609-1.096l-14.497-4.2641-5.117-15.9587c-.122-.4872-.731-.7309-1.096-.6091-.487.1219-.731.6092-.609 1.0965l5.238 16.3244c.122.243.366.487.609.609l14.984 4.507h.244z" fill="#fff" fill-opacity=".3"/>
  <path d="M514.455 113.715c.244 0 .488-.122.609-.244l11.939-12.304c.365-.365.365-.974 0-1.3399-.365-.3655-.975-.3655-1.34 0l-11.939 12.3039c-.365.366-.365.975 0 1.34.244.244.488.244.731.244zM147.031 132.538c.08-.102.109-.245.098-.336l-1.286-8.691c-.062-.132-.125-.263-.227-.343l-7.016-4.754c-.153-.12-.387-.138-.599.026l-8.395 6.393c-.172.113-.241.307-.168.529l2.371 8.467c.062.132.125.263.267.292l7.453 3.774c.193.069.376.047.507-.015l6.875-5.188c.08-.103.12-.154.12-.154zm-2.119-8.683l1.22 8.144-6.36 4.848-7.014-3.596-2.213-7.93 7.841-6.001 6.526 4.535z" fill="#fff" fill-opacity=".3"/>
  <path d="M145.745 123.847c.12-.154.138-.388.024-.559-.164-.212-.449-.27-.661-.105l-6.564 4.687-8.391-3.104c-.245-.109-.548.066-.617.26-.109.245.016.508.261.617l8.583 3.174c.143.029.326.007.457-.056l6.827-4.812c.041-.051.041-.051.081-.102z" fill="#fff" fill-opacity=".3"/>
  <path d="M140.157 137.727c.08-.103.109-.245.098-.337l-1.24-9.067c-.033-.274-.289-.475-.563-.441-.274.033-.474.289-.441.563l1.239 9.067c.034.274.29.475.564.441.182-.022.262-.124.343-.226zM46.7397 147c.1233 0 .2466 0 .3699-.125l25.274-9.856c.3698-.125.4931-.374.6164-.748 0-.375-.1233-.624-.3699-.874l-21.452-15.221c-.2466-.124-.6165-.249-.863-.124-.2466.124-.4932.374-.4932.748L46 145.752c0 .375.1233.624.3699.874 0 .374.1232.374.3698.374zm23.3014-10.979l-22.0685 8.609 3.3288-21.834 18.7397 13.225zM523.356 386c.06 0 .119 0 .178-.06l12.169-4.746c.178-.06.238-.18.297-.36 0-.18-.059-.3-.178-.421l-10.329-7.328c-.119-.06-.297-.12-.415-.06-.119.06-.238.18-.238.36L523 385.399c0 .181.059.301.178.421 0 .18.059.18.178.18zm11.219-5.286l-10.625 4.145 1.603-10.513 9.022 6.368zM154 44c4.925 0 9-4.3019 9-9.4999C163 29.302 158.925 25 154 25s-9 4.302-9 9.5001c0 5.198 4.075 9.4999 9 9.4999zm0-16.3113c3.566 0 6.453 3.0472 6.453 6.8114 0 3.7641-2.887 6.8112-6.453 6.8112-3.566 0-6.453-3.0471-6.453-6.8112.17-3.7642 3.057-6.8114 6.453-6.8114zM416 148c2.189 0 4-1.811 4-4s-1.811-4-4-4-4 1.811-4 4 1.811 4 4 4zm0-6.868c1.585 0 2.868 1.283 2.868 2.868s-1.283 2.868-2.868 2.868-2.868-1.283-2.868-2.868c.076-1.585 1.359-2.868 2.868-2.868zM64 243c2.1887 0 4-1.811 4-4s-1.8113-4-4-4-4 1.811-4 4 1.8113 4 4 4zm0-6.868c1.5849 0 2.8679 1.283 2.8679 2.868s-1.283 2.868-2.8679 2.868c-1.5849 0-2.8679-1.283-2.8679-2.868.0754-1.585 1.3585-2.868 2.8679-2.868z" fill="#fff" fill-opacity=".3"/>
  <path fill-rule="evenodd" clip-rule="evenodd" d="M417.698 11.3449a.6718.6718 0 01-.054.7119l-7.8 10.4869 8.937 8.0374c.186.1668.262.4278.195.6713-.066.2436-.263.4266-.506.471l-6.939 1.2664c-.25.0456-.503-.0637-.645-.2789l-4.867-7.3571-5.164 5.3405a.6353.6353 0 01-.491.1942l-7.755-.4222c-.268-.0145-.498-.1972-.579-.4586-.081-.2614.005-.5467.216-.716l10.555-8.4902-4.572-7.0924a.67.67 0 01-.03-.6744c.112-.2132.33-.3462.566-.3462h4.898c.232 0 .446.1276.56.3341l2.74 4.9588 3.914-6.2561a.6404.6404 0 01.495-.3015l5.714-.4221c.252-.0186.492.1157.612.3432zm-5.912 1.368l-4.316 6.8983c-.122.1943-.334.3092-.559.3029-.225-.0063-.431-.133-.542-.3338l-3.081-5.5756h-3.328l4.24 6.5775c.184.2858.123.6684-.14.88l-9.675 7.7827 5.759.3135 5.511-5.6998a.6362.6362 0 01.517-.1923.6417.6417 0 01.473.2863l5.072 7.6663 5.212-.9513-8.384-7.54c-.254-.2281-.292-.6182-.087-.8931l7.3-9.815-3.972.2934z" fill="#fff" fill-opacity=".3"/>
  <path d="M519.767 273c.237 0 .355 0 .474-.122l8.404-6.224c.237-.122.355-.366.355-.732 0-.244-.118-.488-.237-.732l-11.955-11.594 7.339-5.491c.237-.244.355-.61.355-.854-.118-.366-.355-.611-.592-.733l-22.726-6.467c-.237-.122-.592 0-.829.122-.237.244-.355.488-.355.732l1.776 20.746c0 .366.236.61.473.732s.592.122.829 0l6.273-4.149 9.588 14.4c.118.244.355.366.592.366h.236zm6.984-7.2l-6.747 5.003-9.588-14.4c-.236-.366-.828-.488-1.183-.244l-5.8 3.783-1.539-17.817 19.649 5.614-6.629 5.003c-.236.122-.355.366-.355.732 0 .244.119.489.237.733l11.955 11.593z" fill="#fff" fill-opacity=".3"/>
  <path d="M141 279.03l24 9.97 15-9.97L163.286 251 141 279.03z" fill="url(#paint49_linear)"/>
  <path d="M413 278l-23.972 10L372 277.348 389.028 251 413 278z" fill="url(#paint50_linear)"/>
  <path d="M339.371 115.144c-.282-3.049-2.416-4.925-5.034-4.69l-38.061 3.095c-5.397.423-10.472 2.909-14.661 6.849-1.409 1.36-3.181 2.345-5.155 2.345-1.973 0-3.745-1.032-5.155-2.345-4.189-3.94-9.264-6.426-14.661-6.849l-37.98-3.095c-2.658-.188-4.793 1.641-5.034 4.69-1.289 14.636 3.222 35.087 6.081 33.821 7.331-1.642 27.549-.235 41.726 7.411 4.028.891 8.861-21.296 15.063-21.296 6.203 0 11.036 22.187 15.064 21.296 14.217-7.646 34.395-9.053 41.726-7.411 2.859 1.266 7.37-19.185 6.081-33.821z" fill="#712D89"/>
  <path d="M221.483 149.152c-2.779-4.737-7.773-28.426-1.007-30.724 6.243-2.111 41.847.563 46.076 5.957 4.994 6.38-2.699 28.426-6.605 31.241-3.545 2.533-35.484-1.361-38.464-6.474z" fill="url(#paint51_linear)"/>
  <path d="M331.517 149.152c2.739-4.737 7.773-28.426 1.007-30.724-6.243-2.111-41.847.563-46.076 5.957-4.994 6.38 2.699 28.426 6.605 31.241 3.545 2.533 35.483-1.361 38.464-6.474z" fill="url(#paint52_linear)"/>
  <path d="M266.35 134.189c.484-4.081.121-7.13-1.006-8.537-2.498-3.237-22.515-6.051-36.531-6.051-5.397 0-7.33.469-7.894.656-.241.094-1.047.376-1.611 2.205-.604 1.923-.725 4.55-.523 7.458 9.062 9.71 24.689 16.934 43.256 19.42 1.772-4.034 3.665-9.851 4.309-15.151z" fill="url(#paint53_linear)"/>
  <path d="M332.081 120.21c-.564-.187-2.497-.656-7.894-.656-14.016 0-33.993 2.861-36.531 6.051-1.127 1.454-1.49 4.503-1.006 8.537.644 5.301 2.497 11.117 4.309 15.104 18.567-2.486 34.235-9.71 43.256-19.42.162-2.908.041-5.582-.523-7.458-.564-1.782-1.329-2.064-1.611-2.158z" fill="url(#paint54_linear)"/>
  <path d="M390 288.5c.5 0 15-7 26-10.5M164 288.5c-.5 0-15-7-26-10.5" stroke="#0F0B56" stroke-width="2"/>
  <defs>
    <linearGradient id="paint0_linear" x1="458.503" y1="-91.6012" x2="383.831" y2="509.854" gradientUnits="userSpaceOnUse">
      <stop stop-color="#CD73ED"/>
      <stop offset="1" stop-color="#D93C65"/>
    </linearGradient>
    <linearGradient id="paint1_linear" x1="180.33" y1="34.8656" x2="229.483" y2="491.945" gradientUnits="userSpaceOnUse">
      <stop stop-color="#CD73ED"/>
      <stop offset="1" stop-color="#D93C65"/>
    </linearGradient>
    <linearGradient id="paint2_linear" x1="573.191" y1="289.368" x2="393.738" y2="307.769" gradientUnits="userSpaceOnUse">
      <stop stop-color="#A737D5"/>
      <stop offset="1" stop-color="#EF497A"/>
    </linearGradient>
    <linearGradient id="paint3_linear" x1="429.56" y1="253.426" x2="574.441" y2="238.569" gradientUnits="userSpaceOnUse">
      <stop stop-color="#A737D5"/>
      <stop offset="1" stop-color="#EF497A"/>
    </linearGradient>
    <linearGradient id="paint4_linear" x1="403.676" y1="201.639" x2="537.209" y2="187.946" gradientUnits="userSpaceOnUse">
      <stop stop-color="#A737D5"/>
      <stop offset="1" stop-color="#EF497A"/>
    </linearGradient>
    <linearGradient id="paint5_linear" x1="129.961" y1="521.415" x2="257.616" y2="421.078" gradientUnits="userSpaceOnUse">
      <stop stop-color="#2B3582"/>
      <stop offset="1" stop-color="#150E42"/>
    </linearGradient>
    <linearGradient id="paint6_linear" x1="204.225" y1="383.715" x2="166.023" y2="427.45" gradientUnits="userSpaceOnUse">
      <stop stop-color="#2B3582"/>
      <stop offset="1" stop-color="#150E42"/>
    </linearGradient>
    <linearGradient id="paint7_linear" x1="203.548" y1="384.866" x2="170.083" y2="423.178" gradientUnits="userSpaceOnUse">
      <stop stop-color="#FDF53F"/>
      <stop offset="1" stop-color="#D93C65"/>
    </linearGradient>
    <linearGradient id="paint8_linear" x1="310.374" y1="366.277" x2="209.014" y2="461.069" gradientUnits="userSpaceOnUse">
      <stop stop-color="#2B3582"/>
      <stop offset="1" stop-color="#150E42"/>
    </linearGradient>
    <linearGradient id="paint9_linear" x1="291.98" y1="374.903" x2="228.208" y2="448.115" gradientUnits="userSpaceOnUse">
      <stop stop-color="#FDF53F"/>
      <stop offset="1" stop-color="#D93C65"/>
    </linearGradient>
    <linearGradient id="paint10_linear" x1="34.3417" y1="352.116" x2="518.669" y2="352.116" gradientUnits="userSpaceOnUse">
      <stop stop-color="#2B3582"/>
      <stop offset="1" stop-color="#150E42"/>
    </linearGradient>
    <linearGradient id="paint11_linear" x1="276.011" y1="207.304" x2="276.011" y2="245.797" gradientUnits="userSpaceOnUse">
      <stop stop-color="#DE8149"/>
      <stop offset="1" stop-color="#F9A26F"/>
    </linearGradient>
    <linearGradient id="paint12_linear" x1="488.227" y1="151.604" x2="478.87" y2="362.92" gradientUnits="userSpaceOnUse">
      <stop stop-color="#736BE8"/>
      <stop offset="1" stop-color="#171377"/>
    </linearGradient>
    <linearGradient id="paint13_linear" x1="258.099" y1="109.455" x2="287.032" y2="216.359" gradientUnits="userSpaceOnUse">
      <stop stop-color="#FAB877"/>
      <stop offset="1" stop-color="#F8A06E"/>
    </linearGradient>
    <linearGradient id="paint14_linear" x1="214.276" y1="277.296" x2="214.711" y2="282.967" gradientUnits="userSpaceOnUse">
      <stop stop-color="#CD73ED"/>
      <stop offset="1" stop-color="#D93C65"/>
    </linearGradient>
    <linearGradient id="paint15_linear" x1="229.326" y1="277.066" x2="229.342" y2="282.754" gradientUnits="userSpaceOnUse">
      <stop stop-color="#CD73ED"/>
      <stop offset="1" stop-color="#D93C65"/>
    </linearGradient>
    <linearGradient id="paint16_linear" x1="221.498" y1="277.066" x2="221.514" y2="282.754" gradientUnits="userSpaceOnUse">
      <stop stop-color="#CD73ED"/>
      <stop offset="1" stop-color="#D93C65"/>
    </linearGradient>
    <linearGradient id="paint17_linear" x1="319.372" y1="278.633" x2="319.936" y2="283.675" gradientUnits="userSpaceOnUse">
      <stop stop-color="#53D4FF"/>
      <stop offset="1" stop-color="#0F168A"/>
    </linearGradient>
    <linearGradient id="paint18_linear" x1="349.57" y1="282.216" x2="348.025" y2="287.048" gradientUnits="userSpaceOnUse">
      <stop stop-color="#53D4FF"/>
      <stop offset="1" stop-color="#0F168A"/>
    </linearGradient>
    <linearGradient id="paint19_linear" x1="274.054" y1="280.691" x2="275.032" y2="328.636" gradientUnits="userSpaceOnUse">
      <stop stop-color="#6EDBFF"/>
      <stop offset="1" stop-color="#2A6AB5"/>
    </linearGradient>
    <linearGradient id="paint20_linear" x1="260.721" y1="278.443" x2="261.063" y2="292.645" gradientUnits="userSpaceOnUse">
      <stop stop-color="#CD73ED"/>
      <stop offset="1" stop-color="#D93C65"/>
    </linearGradient>
    <linearGradient id="paint21_linear" x1="217.544" y1="305.812" x2="217.544" y2="331.018" gradientUnits="userSpaceOnUse">
      <stop stop-color="#172A97"/>
      <stop offset="1" stop-color="#050041"/>
    </linearGradient>
    <linearGradient id="paint22_linear" x1="336.116" y1="305.812" x2="336.116" y2="331.018" gradientUnits="userSpaceOnUse">
      <stop stop-color="#172A97"/>
      <stop offset="1" stop-color="#050041"/>
    </linearGradient>
    <linearGradient id="paint23_linear" x1="208.28" y1="288.64" x2="220.629" y2="306.788" gradientUnits="userSpaceOnUse">
      <stop stop-color="#C0A3FF"/>
      <stop offset="1" stop-color="#1A2299"/>
    </linearGradient>
    <linearGradient id="paint24_linear" x1="345.379" y1="288.64" x2="333.031" y2="306.788" gradientUnits="userSpaceOnUse">
      <stop stop-color="#C0A3FF"/>
      <stop offset="1" stop-color="#1A2299"/>
    </linearGradient>
    <linearGradient id="paint25_linear" x1="187.947" y1="333.04" x2="187.477" y2="349.635" gradientUnits="userSpaceOnUse">
      <stop stop-color="#E9B07C"/>
      <stop offset="1" stop-color="#E1A570"/>
    </linearGradient>
    <linearGradient id="paint26_linear" x1="189.904" y1="347.228" x2="189.602" y2="357.59" gradientUnits="userSpaceOnUse">
      <stop stop-color="#EDB480"/>
      <stop offset="1" stop-color="#E1A670"/>
    </linearGradient>
    <linearGradient id="paint27_linear" x1="191.253" y1="253.262" x2="191.253" y2="319.926" gradientUnits="userSpaceOnUse">
      <stop stop-color="#EDB480"/>
      <stop offset=".8329" stop-color="#E8AF7A"/>
      <stop offset="1" stop-color="#DDA16A"/>
    </linearGradient>
    <linearGradient id="paint28_linear" x1="187.947" y1="315.916" x2="188.053" y2="336.21" gradientUnits="userSpaceOnUse">
      <stop stop-color="#EDB480"/>
      <stop offset="1" stop-color="#E0A56F"/>
    </linearGradient>
    <linearGradient id="paint29_linear" x1="366.773" y1="333.04" x2="367.243" y2="349.635" gradientUnits="userSpaceOnUse">
      <stop stop-color="#E9B07C"/>
      <stop offset="1" stop-color="#E1A570"/>
    </linearGradient>
    <linearGradient id="paint30_linear" x1="364.816" y1="347.228" x2="365.118" y2="357.59" gradientUnits="userSpaceOnUse">
      <stop stop-color="#EDB480"/>
      <stop offset="1" stop-color="#E1A670"/>
    </linearGradient>
    <linearGradient id="paint31_linear" x1="363.468" y1="253.262" x2="363.468" y2="319.926" gradientUnits="userSpaceOnUse">
      <stop stop-color="#EDB480"/>
      <stop offset=".8329" stop-color="#E8AF7A"/>
      <stop offset="1" stop-color="#DDA16A"/>
    </linearGradient>
    <linearGradient id="paint32_linear" x1="366.773" y1="315.916" x2="366.668" y2="336.21" gradientUnits="userSpaceOnUse">
      <stop stop-color="#EDB480"/>
      <stop offset="1" stop-color="#E0A56F"/>
    </linearGradient>
    <linearGradient id="paint33_linear" x1="348.746" y1="33.3907" x2="385.888" y2="79.5127" gradientUnits="userSpaceOnUse">
      <stop stop-color="#171154"/>
      <stop offset="1" stop-color="#230641"/>
    </linearGradient>
    <linearGradient id="paint34_linear" x1="199.066" y1="26.2966" x2="237.522" y2="85.8619" gradientUnits="userSpaceOnUse">
      <stop stop-color="#171154"/>
      <stop offset="1" stop-color="#230641"/>
    </linearGradient>
    <linearGradient id="paint35_linear" x1="185.664" y1="88.7306" x2="222.508" y2="134.272" gradientUnits="userSpaceOnUse">
      <stop stop-color="#171154"/>
      <stop offset="1" stop-color="#230641"/>
    </linearGradient>
    <linearGradient id="paint36_linear" x1="200.46" y1="84.1813" x2="241.353" y2="158.515" gradientUnits="userSpaceOnUse">
      <stop stop-color="#171154"/>
      <stop offset="1" stop-color="#230641"/>
    </linearGradient>
    <linearGradient id="paint37_linear" x1="340.724" y1="83.7554" x2="381.148" y2="162.534" gradientUnits="userSpaceOnUse">
      <stop stop-color="#171154"/>
      <stop offset="1" stop-color="#230641"/>
    </linearGradient>
    <linearGradient id="paint38_linear" x1="361.79" y1="88.7306" x2="398.638" y2="134.255" gradientUnits="userSpaceOnUse">
      <stop stop-color="#171154"/>
      <stop offset="1" stop-color="#230641"/>
    </linearGradient>
    <linearGradient id="paint39_linear" x1="205.404" y1="221" x2="347.147" y2="221" gradientUnits="userSpaceOnUse">
      <stop stop-color="#2B3582"/>
      <stop offset="1" stop-color="#150E42"/>
    </linearGradient>
    <linearGradient id="paint40_linear" x1="319.031" y1="152.08" x2="334.195" y2="175.918" gradientUnits="userSpaceOnUse">
      <stop stop-color="#53D4FF"/>
      <stop offset="1" stop-color="#0F168A"/>
    </linearGradient>
    <linearGradient id="paint41_linear" x1="298.517" y1="172.835" x2="317.561" y2="172.835" gradientUnits="userSpaceOnUse">
      <stop stop-color="#2B3582"/>
      <stop offset="1" stop-color="#150E42"/>
    </linearGradient>
    <linearGradient id="paint42_linear" x1="320.532" y1="172.079" x2="320.532" y2="267.97" gradientUnits="userSpaceOnUse">
      <stop stop-color="#4940C0"/>
      <stop offset="1" stop-color="#352E9A"/>
    </linearGradient>
    <linearGradient id="paint43_linear" x1="231.49" y1="172.079" x2="231.49" y2="267.97" gradientUnits="userSpaceOnUse">
      <stop stop-color="#4940C0"/>
      <stop offset="1" stop-color="#352E9A"/>
    </linearGradient>
    <linearGradient id="paint44_linear" x1="354.542" y1="158.212" x2="347.872" y2="267.093" gradientUnits="userSpaceOnUse">
      <stop stop-color="#736BE8"/>
      <stop offset="1" stop-color="#171377"/>
    </linearGradient>
    <linearGradient id="paint45_linear" x1="345.281" y1="56.2819" x2="392.888" y2="70.5892" gradientUnits="userSpaceOnUse">
      <stop stop-color="#53D4FF"/>
      <stop offset="1" stop-color="#0F168A"/>
    </linearGradient>
    <linearGradient id="paint46_linear" x1="183.442" y1="56.292" x2="229.323" y2="69.4792" gradientUnits="userSpaceOnUse">
      <stop stop-color="#53D4FF"/>
      <stop offset="1" stop-color="#0F168A"/>
    </linearGradient>
    <linearGradient id="paint47_linear" x1="318.082" y1="164.029" x2="317.33" y2="177.554" gradientUnits="userSpaceOnUse">
      <stop stop-color="#736BE8"/>
      <stop offset="1" stop-color="#171377"/>
    </linearGradient>
    <linearGradient id="paint48_linear" x1="188.442" y1="67.1763" x2="351.174" y2="67.1763" gradientUnits="userSpaceOnUse">
      <stop stop-color="#2B3582"/>
      <stop offset="1" stop-color="#150E42"/>
    </linearGradient>
    <linearGradient id="paint49_linear" x1="149.357" y1="259.97" x2="143.156" y2="287.984" gradientUnits="userSpaceOnUse">
      <stop stop-color="#28238C" stop-opacity="0"/>
      <stop offset="1" stop-color="#1C1870"/>
    </linearGradient>
    <linearGradient id="paint50_linear" x1="402.761" y1="259.97" x2="409.042" y2="287.946" gradientUnits="userSpaceOnUse">
      <stop stop-color="#28238C" stop-opacity="0"/>
      <stop offset="1" stop-color="#1C1870"/>
    </linearGradient>
    <linearGradient id="paint51_linear" x1="217.089" y1="137.055" x2="268.184" y2="137.055" gradientUnits="userSpaceOnUse">
      <stop stop-color="#2B3582"/>
      <stop offset="1" stop-color="#150E42"/>
    </linearGradient>
    <linearGradient id="paint52_linear" x1="284.817" y1="137.055" x2="335.901" y2="137.055" gradientUnits="userSpaceOnUse">
      <stop stop-color="#2B3582"/>
      <stop offset="1" stop-color="#150E42"/>
    </linearGradient>
    <linearGradient id="paint53_linear" x1="226.465" y1="124.07" x2="243.641" y2="154.52" gradientUnits="userSpaceOnUse">
      <stop stop-color="#53D4FF"/>
      <stop offset="1" stop-color="#0F168A"/>
    </linearGradient>
    <linearGradient id="paint54_linear" x1="294.207" y1="124.017" x2="311.346" y2="154.434" gradientUnits="userSpaceOnUse">
      <stop stop-color="#53D4FF"/>
      <stop offset="1" stop-color="#0F168A"/>
    </linearGradient>
  </defs>
</svg>